<svg width="43" height="42" viewBox="0 0 43 42" fill="none" xmlns="http://www.w3.org/2000/svg">
<path d="M23.3499 10.4904C23.3499 16.1915 21.2504 20.8133 21.2504 20.8133C21.2504 20.8133 19.1508 16.1915 19.1508 10.4904C19.1508 4.78919 21.2504 0.16748 21.2504 0.16748C21.2504 0.16748 23.3499 4.78919 23.3499 10.4904Z" fill="black"/>
<path d="M23.3499 31.5113C23.3499 37.2124 21.2504 41.8342 21.2504 41.8342C21.2504 41.8342 19.1508 37.2124 19.1508 31.5113C19.1508 25.8101 21.2504 21.1884 21.2504 21.1884C21.2504 21.1884 23.3499 25.8101 23.3499 31.5113Z" fill="black"/>
<path d="M31.7607 23.1004C26.0595 23.1004 21.4378 21.0008 21.4378 21.0008C21.4378 21.0008 26.0595 18.9012 31.7607 18.9012C37.4619 18.9012 42.0836 21.0008 42.0836 21.0008C42.0836 21.0008 37.4619 23.1004 31.7607 23.1004Z" fill="black"/>
<path d="M10.7398 23.1004C5.0386 23.1004 0.416885 21.0008 0.416885 21.0008C0.416885 21.0008 5.0386 18.9012 10.7398 18.9012C16.4409 18.9012 21.0627 21.0008 21.0627 21.0008C21.0627 21.0008 16.4409 23.1004 10.7398 23.1004Z" fill="black"/>
<path d="M30.167 15.0534C26.1356 19.0848 21.383 20.8682 21.383 20.8682C21.383 20.8682 23.1664 16.1155 27.1977 12.0842C31.2291 8.05287 35.9817 6.26944 35.9817 6.26944C35.9817 6.26944 34.1983 11.0221 30.167 15.0534Z" fill="black"/>
<path d="M15.3029 29.9175C11.2716 33.9488 6.51891 35.7322 6.51891 35.7322C6.51891 35.7322 8.30233 30.9796 12.3337 26.9482C16.365 22.9169 21.1177 21.1335 21.1177 21.1335C21.1177 21.1335 19.3342 25.8861 15.3029 29.9175Z" fill="black"/>
<path d="M27.1975 29.9175C23.1662 25.8861 21.3827 21.1335 21.3827 21.1335C21.3827 21.1335 26.1354 22.9169 30.1667 26.9482C34.1981 30.9796 35.9815 35.7322 35.9815 35.7322C35.9815 35.7322 31.2288 33.9488 27.1975 29.9175Z" fill="black"/>
<path d="M12.3334 15.0535C8.30211 11.0221 6.51868 6.26945 6.51868 6.26945C6.51868 6.26945 11.2713 8.05288 15.3027 12.0842C19.334 16.1156 21.1175 20.8682 21.1175 20.8682C21.1175 20.8682 16.3648 19.0848 12.3334 15.0535Z" fill="black"/>
</svg>
